<?xml version="1.0" encoding="UTF-8" standalone="no"?>
<!DOCTYPE svg PUBLIC "-//W3C//DTD SVG 1.1//EN" "http://www.w3.org/Graphics/SVG/1.1/DTD/svg11.dtd">
<svg width="100%" height="100%" viewBox="0 0 21 22" version="1.1" xmlns="http://www.w3.org/2000/svg" xmlns:xlink="http://www.w3.org/1999/xlink" xml:space="preserve" xmlns:serif="http://www.serif.com/" style="fill-rule:evenodd;clip-rule:evenodd;stroke-linecap:round;stroke-linejoin:round;">
    <g transform="matrix(1,0,0,1,-1.75,-1.25)">
        <g transform="matrix(1,0,0,1,2.5,2)">
            <g id="Iconly-Light-Home" serif:id="Iconly/Light/Home">
                <g id="Home">
                    <path d="M6.657,18.771L6.657,15.705C6.657,14.925 7.293,14.291 8.081,14.286L10.967,14.286C11.759,14.286 12.401,14.921 12.401,15.705L12.401,18.781C12.4,19.443 12.934,19.984 13.603,20L15.527,20C17.445,20 19,18.461 19,16.562L19,7.838C18.99,7.091 18.635,6.389 18.038,5.933L11.458,0.685C10.305,-0.228 8.666,-0.228 7.513,0.685L0.962,5.943C0.362,6.397 0.007,7.1 0,7.847L0,16.562C0,18.461 1.555,20 3.473,20L5.397,20C6.082,20 6.638,19.45 6.638,18.771" style="fill:none;stroke:rgb(156,89,255);stroke-width:1.5px;"/>
                </g>
            </g>
        </g>
    </g>
</svg>
