<?xml version="1.0" encoding="UTF-8" standalone="no"?>
<!DOCTYPE svg PUBLIC "-//W3C//DTD SVG 1.1//EN" "http://www.w3.org/Graphics/SVG/1.1/DTD/svg11.dtd">
<svg width="100%" height="100%" viewBox="0 0 19 20" version="1.1" xmlns="http://www.w3.org/2000/svg" xmlns:xlink="http://www.w3.org/1999/xlink" xml:space="preserve" xmlns:serif="http://www.serif.com/" style="fill-rule:evenodd;clip-rule:evenodd;stroke-linecap:round;stroke-linejoin:round;">
    <g transform="matrix(1,0,0,1,-3.0006,-1.9998)">
        <g transform="matrix(1,0,0,1,3,2)">
            <g id="Iconly-Light-Document" serif:id="Iconly/Light/Document">
                <g id="Document">
                    <path id="Stroke-1" d="M12.716,14.223L5.496,14.223" style="fill:none;stroke:rgb(156,89,255);stroke-width:1.5px;"/>
                    <path id="Stroke-2" d="M12.716,10.037L5.496,10.037" style="fill:none;stroke:rgb(156,89,255);stroke-width:1.5px;"/>
                    <path id="Stroke-3" d="M8.251,5.86L5.496,5.86" style="fill:none;stroke:rgb(156,89,255);stroke-width:1.5px;"/>
                    <path id="Stroke-4" d="M12.909,0.75C12.909,0.75 5.232,0.754 5.22,0.754C2.46,0.771 0.751,2.587 0.751,5.357L0.751,14.553C0.751,17.337 2.473,19.16 5.257,19.16C5.257,19.16 12.933,19.157 12.946,19.157C15.706,19.14 17.416,17.323 17.416,14.553L17.416,5.357C17.416,2.573 15.693,0.75 12.909,0.75Z" style="fill:none;stroke:rgb(156,89,255);stroke-width:1.5px;"/>
                </g>
            </g>
        </g>
    </g>
</svg>
